{"title":"Shallow Ground 2004 DVDrip English Klam","uid":8909947,"size":1366407591,"categoryP":"video","categoryS":"movies","magnet":"?xt=urn:btih:2279951b54f36fdb776877a7e061d160c26f330d&amp;dn=Shallow+Ground+2004+DVDrip+English+Klam&amp;tr=udp%3A%2F%2Ftracker.openbittorrent.com%3A80&amp;tr=udp%3A%2F%2Fopen.demonii.com%3A1337&amp;tr=udp%3A%2F%2Ftracker.coppersurfer.tk%3A6969&amp;tr=udp%3A%2F%2Fexodus.desync.com%3A6969","seeders":0,"leechers":1,"uploader":"Klambake","files":-1,"time":1378996030,"description":"With: Timothy V. Murphy, Stan Kirsch and Patricia McCormack\n\nEen afgelegen politiestation op het Amerikaanse platteland sluit zijn deuren. Op de laatste dag, terwijl dossiers en materiaal al ingepakt zijn, strompelt een naakte jongen naar binnen. Hij is van kop tot teen bedekt met bloed en weigert te spreken. Zijn gezicht komt iedereen bekend voor, maar niemand is zeker van waar ze hem kennen. Terwijl de jongen voor zich uit staart, druipt het bloed uit zijn lichaam en zoekt het zich een weg over de vloer, alsof gedreven door een duister en geheim doel. De politie neemt zijn vingerafdrukken en zoekt doorheen hun dossiers. Wat ze vinden is te onmogelijk om waar te zijn. Helaas voor hen en voor heel wat anderen, kan de waarheid vreemder zijn dan de meest vergezochte fictie. Het verleden vergeet niets en een bloederige dag des oordeels is aangebroken.\n\nA naked teenage boy covered in blood appears at a remote sheriff's station one year after the brutal unsolved murder of a local girl. Now Sheriff Jack Shepherd, guilt ridden over the girl's...\n &lt;a href=&quot;\nhttp://www.imdb.com/title/tt0369918&quot; rel=&quot;nofollow&quot; target=&quot;_NEW&quot;&gt;\nhttp://www.imdb.com/title/tt0369918&lt;/a&gt;\t\n\n------------------------ Dutch Friends ------------------------\n---------------------------------------------------------------\n- Bezoek ook eens mijn vrienden op: &lt;a href=&quot; http://www.Film-Test.nl&quot; rel=&quot;nofollow&quot; target=&quot;_NEW&quot;&gt; http://www.Film-Test.nl&lt;/a&gt; --\n----- voor mijn Nederlandse Sync. ondertitels ---- en meer ----\n------- http://www.Film-Test.nl ---- Over Films en meer -------\n---------------------------------------------------------------\n\nGeneral:\n\nComplete name                    : Shallow GroundShallow Ground.avi\nFormat                           : AVI\nFormat/Info                      : Audio Video Interleave\nFile size                        : 1.27 GiB\nDuration                         : 1h 32mn\nOverall bit rate                 : 1 963 Kbps\n\nVideo:\n\nFormat                           : MPEG-4 Visual\nFormat profile                   : Simple@L3\nFormat settings, BVOP            : No\nFormat settings, QPel            : No\nFormat settings, GMC             : No warppoints\nFormat settings, Matrix          : Default (H.263)\nCodec ID                         : XVID\nCodec ID/Hint                    : XviD\nDuration                         : 1h 32mn\nBit rate                         : 1 728 Kbps\nWidth                            : 704 pixels\nHeight                           : 396 pixels\nDisplay aspect ratio             : 16:9\nFrame rate                       : 25.000 fps\nColor space                      : YUV\nChroma subsampling               : 4:2:0\nBit depth                        : 8 bits\nScan type                        : Progressive\nCompression mode                 : Lossy\nBits/(Pixel*Frame)               : 0.248\nStream size                      : 1.12 GiB (88%)\nWriting library                  : XviD 1.1.2 (UTC 2006-11-01)\n\nAudio:\n\nFormat                           : AC-3\nFormat/Info                      : Audio Coding 3\nMode extension                   : CM (complete main)\nCodec ID                         : 2000\nDuration                         : 1h 32mn\nBit rate mode                    : Constant\nBit rate                         : 224 Kbps\nChannel(s)                       : 2 channels\nChannel positions                : Front: L R\nSampling rate                    : 48.0 KHz\nBit depth                        : 16 bits\nCompression mode                 : Lossy\nStream size                      : 149 MiB (11%)\nAlignment                        : Aligned on interleaves\nInterleave, duration             : 32 ms (0.80 video frame)\nInterleave, preload duration     : 288 ms","torrent":{"xt":"urn:btih:2279951b54f36fdb776877a7e061d160c26f330d","amp;dn":"Shallow+Ground+2004+DVDrip+English+Klam","amp;tr":["udp%3A%2F%2Ftracker.openbittorrent.com%3A80","udp%3A%2F%2Fopen.demonii.com%3A1337","udp%3A%2F%2Ftracker.coppersurfer.tk%3A6969","udp%3A%2F%2Fexodus.desync.com%3A6969"],"infoHash":"2279951b54f36fdb776877a7e061d160c26f330d","infoHashBuffer":{"type":"Buffer","data":[34,121,149,27,84,243,111,219,119,104,119,167,224,97,209,96,194,111,51,13]},"announce":[],"urlList":[]}}